<?xml version="1.0" standalone="no"?>
<!DOCTYPE svg PUBLIC "-//W3C//DTD SVG 20010904//EN"
 "http://www.w3.org/TR/2001/REC-SVG-20010904/DTD/svg10.dtd">
<svg version="1.0" xmlns="http://www.w3.org/2000/svg"
 width="285.000000pt" height="285.000000pt" viewBox="0 0 285.000000 285.000000"
 preserveAspectRatio="xMidYMid meet">
<metadata>
Created by potrace 1.11, written by Peter Selinger 2001-2013
</metadata>
<g transform="translate(0.000000,285.000000) scale(0.100000,-0.100000)"
fill="#000000" stroke="none">
<path d="M1200 2825 c-386 -71 -719 -280 -932 -586 -128 -183 -190 -334 -244
-594 -11 -52 -13 -347 -4 -410 11 -67 17 -99 24 -123 3 -9 7 -28 10 -42 9 -50
49 -157 91 -247 171 -362 474 -627 860 -749 158 -49 261 -63 450 -59 88 3 169
6 180 8 278 52 495 149 685 305 196 161 332 351 435 606 23 58 63 213 70 276
4 30 9 66 11 80 5 33 5 228 0 260 -2 14 -7 51 -11 84 -15 129 -69 295 -142
441 -89 175 -253 368 -416 489 -87 64 -250 153 -351 191 -151 56 -277 78 -466
81 -116 1 -200 -2 -250 -11z m375 -305 c98 -16 116 -21 192 -45 339 -107 618
-395 717 -739 38 -130 38 -129 42 -286 3 -163 -7 -236 -56 -381 -88 -262 -282
-490 -531 -622 -64 -34 -239 -101 -239 -92 0 2 -11 0 -25 -5 -46 -17 -119 -25
-245 -25 -150 0 -208 7 -320 41 -375 113 -658 411 -761 801 -28 106 -35 336
-13 448 69 357 284 643 601 799 105 52 164 72 281 96 94 19 274 24 357 10z"/>
<path d="M1375 2243 c-132 -14 -252 -49 -341 -98 -267 -148 -428 -421 -426
-720 1 -55 3 -111 6 -125 3 -14 9 -41 12 -60 25 -129 121 -299 232 -405 116
-113 251 -180 442 -221 46 -10 215 -6 280 6 374 69 662 414 663 795 0 120 -14
203 -54 305 -73 190 -232 360 -420 449 -107 50 -291 85 -394 74z m185 -330
c156 -43 283 -158 340 -310 77 -205 15 -432 -154 -569 -102 -83 -198 -116
-331 -113 -145 3 -243 45 -346 148 -102 102 -149 214 -150 356 -1 334 318 578
641 488z"/>
<path d="M1341 1640 c-179 -76 -191 -328 -20 -417 36 -19 57 -23 115 -21 84 4
137 33 181 100 25 37 28 51 28 123 0 72 -3 86 -28 123 -44 67 -97 96 -181 99
-39 2 -82 -2 -95 -7z"/>
</g>
</svg>
